<?xml version="1.0" encoding="utf-8"?>
<!-- Generator: Adobe Illustrator 22.0.1, SVG Export Plug-In . SVG Version: 6.00 Build 0)  -->
<svg version="1.1" id="Layer_1" xmlns="http://www.w3.org/2000/svg" xmlns:xlink="http://www.w3.org/1999/xlink" x="0px" y="0px"
	 viewBox="0 0 112 24" style="enable-background:new 0 0 112 24;" xml:space="preserve">
<style type="text/css">
	.st0{fill:#231F20;}
	.st1{fill:#F59221;}
	.st2{fill:none;stroke:#F59221;stroke-width:0.977;}
	.st3{fill:#FFFFFF;}
	.st4{fill:#4A484B;}
	.st5{fill:none;stroke:#FF9400;stroke-width:0.25;stroke-miterlimit:10;}
	.st6{fill:#FF8000;}
	.st7{enable-background:new    ;}
</style>
<g transform="translate(4)">
	<path class="st1" d="M9.6,2.9H7.9v1.4c0,0.8,0.6,1.4,1.2,1.4h1.7V4.3C10.8,3.5,10.2,2.9,9.6,2.9"/>
	<path class="st2" d="M9.6,2.9H7.9v1.4c0,0.8,0.6,1.4,1.2,1.4h1.7V4.3C10.8,3.5,10.2,2.9,9.6,2.9z"/>
	<g transform="translate(0 3.074)">
		<path class="st3" d="M5.8,9.9c-0.1,0.3-0.4,0.7-0.6,0.9c-0.3,0.3-0.6,0.5-0.9,0.6c-0.4,0.2-0.7,0.2-1.1,0.2s-0.8-0.1-1.1-0.2
			c-0.3-0.1-0.7-0.4-0.9-0.6c-0.3-0.3-0.5-0.6-0.6-0.9C0.3,9.6,0.2,9.2,0.2,8.8c0-0.8,0.3-1.5,0.9-2.1C1.3,6.5,1.6,6.3,2,6.1
			C2.4,6,2.7,5.9,3.1,5.9S3.9,6,4.2,6.1c0.4,0.2,0.7,0.4,0.9,0.6c0.4,0.3,0.6,0.6,0.7,1C6,8,6,8.4,6,8.8C6,9.2,6,9.6,5.8,9.9
			 M8.6,10.6c1-3.3-0.7-5.2-0.7-5.2C7.4,4.8,6.8,4.2,6,3.8C5.5,3.4,4.9,3.2,4.2,3.1C3.5,3,2.9,3,2.2,3.1s-1.4,0.4-2,0.7V1.6
			c0-0.1,0-0.2,0-0.3C0.1,0.6-0.5,0.1-1.2,0.1h-1.5v8.7c0,0.8,0.1,1.6,0.5,2.3c0.3,0.7,0.7,1.3,1.2,1.9c1.1,1.1,2.6,1.7,4.1,1.7
			c0.8,0,1.6-0.2,2.3-0.5s1.3-0.7,1.8-1.2c0.2-0.2,0.5-0.5,0.6-0.8C8.2,11.7,8.4,11.1,8.6,10.6"/>
	</g>
	<path class="st3" d="M9.4,6.1L9.4,6.1c-0.9,0-1.5,0.7-1.5,1.5V8C8,8.1,8,8.2,8.1,8.4c0.2,0.2,1.7,2.2,0.7,5.4
		c-0.2,0.7-0.4,1.2-0.7,1.6c-0.1,0.1-0.2,0.2-0.2,0.3v2h1.5c0.8,0,1.4-0.7,1.4-1.5V6.1H9.4z M21.3,11.4c0-0.2,0-0.3-0.1-0.5h-4.5
		c-0.8,0-1.5,0.6-1.5,1.4v1.4h2.4c-0.4,0.5-0.9,0.8-1.5,0.9c-0.6,0.1-1.1,0.1-1.7-0.1c-0.5-0.2-1-0.5-1.4-1s-0.6-1-0.6-1.7
		c0-0.5,0.1-1,0.3-1.4c0.4-0.8,1.1-1.3,2-1.5c0.4-0.1,0.8-0.1,1.3,0c0.5,0.1,0.9,0.3,1.3,0.7l0.1,0.1l0.1,0.1H19c0.1,0,0.2,0,0.2,0
		c0.6-0.1,1-0.5,1-1.1v0.1c0-0.2-0.1-0.4-0.2-0.6c-0.2-0.3-0.5-0.6-0.8-0.8c-0.8-0.6-1.6-1-2.5-1.2C15.8,6,14.9,6,14,6.3
		c-0.9,0.2-1.7,0.7-2.4,1.2c-0.2,0.1-0.3,0.3-0.5,0.5v7.8c0.3,0.3,0.6,0.6,0.9,0.9c0.6,0.4,1.2,0.7,1.9,0.8c0.7,0.2,1.4,0.2,2,0.2
		c0.7-0.1,1.4-0.2,2-0.5s1.2-0.7,1.7-1.1c0.5-0.5,0.9-1.1,1.2-1.8c0.3-0.7,0.4-1.5,0.4-2.4C21.3,11.7,21.3,11.6,21.3,11.4"/>
	<g>
		<path class="st4" d="M39.2,16.2h1.1c0.4,0,0.7,0.2,0.7,0.5v1.6v1.6c0,0.3-0.3,0.5-0.7,0.5h-1.1c-0.4,0-0.7-0.2-0.7-0.5v-1.6v-1.6
			C38.5,16.5,38.8,16.2,39.2,16.2z"/>
		<path class="st4" d="M23.8,16.2h1.1c0.4,0,0.7,0.2,0.7,0.5v1.6v1.6c0,0.3-0.3,0.5-0.7,0.5h-1.1c-0.4,0-0.7-0.2-0.7-0.5v-1.6v-1.6
			C23.1,16.5,23.4,16.2,23.8,16.2z"/>
		<path class="st5" d="M40.1,9.3c-0.9-0.2-0.7,0.7-0.7,0.7h-0.2c-0.4-0.8-1.1-2-1.4-2.6c-0.1-0.2-0.4-0.4-0.7-0.5
			c-0.3-0.3-2.4-0.5-5.2-0.5c-2.5,0-4.3,0.2-5,0.4c-0.4,0-0.7,0.2-0.9,0.6L24.6,10h-0.2c0,0,0.1-0.9-0.7-0.7
			c-0.9,0.2-1.3,0.7-1.1,1.1c0.1,0.3,1.3,0.3,1.7,0.2l0,0c0,0-1.4,0.6-1.4,2.6v3.9H41v-3.9c0-1.9-1.4-2.6-1.4-2.6l0,0
			c0.4,0,1.6,0.1,1.7-0.2C41.4,10,41,9.5,40.1,9.3z"/>
		<path class="st5" d="M24.9,10.4l1.3-2.7C26.4,7.3,27,7,27.4,7h8.9c0.4,0,1,0.3,1.2,0.7l1.3,2.7c0.1,0.2,0,0.4-0.3,0.4H25.2
			C24.9,10.8,24.8,10.6,24.9,10.4z"/>
		<path class="st3" d="M25.2,10.6C25.1,10.6,25.1,10.6,25.2,10.6C25.1,10.5,25.1,10.5,25.2,10.6l1.2-2.8c0.2-0.3,0.7-0.6,1-0.6h8.9
			c0.4,0,0.9,0.3,1,0.6l1.3,2.7v0.1c0,0,0,0-0.1,0H25.2z"/>
		<path class="st1" d="M37.5,16.2l-0.6,0.5H27l-0.6-0.5H23c0,0.3,0,1.1,0,1.1c0,0.4,0.7,0.6,1.5,0.6h15.1c0.8,0,1.5-0.3,1.5-0.6
			c0-0.3,0-0.8,0-1.1H37.5z"/>
		<g>
			<path class="st1" d="M36,16.8h-7.9c-0.4,0-0.4-0.3-0.5-0.6c-0.1-0.3,0.1-0.6,0.5-0.6H36c0.4,0,0.6,0.3,0.5,0.6
				C36.4,16.6,36.4,16.8,36,16.8z"/>
		</g>
		<path class="st6" d="M41.1,15.6h-0.5c-0.1,0-0.2,0.1-0.2,0.2c0,0.1,0.1,0.2,0.2,0.2h0.5V15.6z"/>
		<path class="st6" d="M23,15.6h0.5c0.1,0,0.2,0.1,0.2,0.2c0,0.1-0.1,0.2-0.2,0.2H23V15.6z"/>
		<g>
			<path class="st5" d="M38.2,14.2c-0.2-0.2-0.5-0.2-1-0.3c-0.2,0-0.3,0-0.5-0.1c-0.4,0-0.7-0.3-0.9-0.6c0.9-0.2,3.3-0.8,3.9-0.9
				h0.1c0.1,0,0.1,0,0.1,0.1c0.1,0.1,0,0.5-0.2,0.9C39.6,13.8,38.6,14.2,38.2,14.2L38.2,14.2z"/>
		</g>
		<g>
			<path class="st5" d="M25.8,14.2c0.2-0.2,0.5-0.2,1-0.3c0.2,0,0.3,0,0.5-0.1c0.4,0,0.7-0.3,0.9-0.6c-0.9-0.2-3.3-0.8-3.9-0.9h-0.1
				c-0.1,0-0.1,0-0.1,0.1c-0.1,0.1,0,0.5,0.2,0.9C24.5,13.8,25.4,14.2,25.8,14.2L25.8,14.2z"/>
		</g>
		<g>
			<path class="st5" d="M30.3,14.1c-0.4,0-0.9-0.3-0.9-0.7c0-0.2,0-0.3,0.1-0.4c0.1-0.1,0.3-0.2,0.5-0.2h3.8c0.2,0,0.4,0.1,0.5,0.2
				c0.1,0.1,0.1,0.3,0.1,0.4c-0.1,0.4-0.5,0.7-0.9,0.7H30.3z"/>
		</g>
	</g>
</g>
<g class="st7">
	<path class="st3" d="M46.9,7.6h0.5v2.5c0.9-1.7,2.5-2.7,4.5-2.7c3.2,0,5.1,2.5,5.1,5.1c0,2.7-2,5.1-5.1,5.1c-2.3,0-4-1.4-4.5-2.8
		v2.6v3.9h-0.5V7.6z M56.5,12.4c0-2.2-1.5-4.6-4.7-4.6c-1.3,0-2.4,0.5-3.3,1.3c-0.8,0.8-1.3,2-1.3,3.3s0.5,2.5,1.3,3.3
		c0.8,0.8,2,1.3,3.3,1.3C54.5,17,56.5,15.2,56.5,12.4L56.5,12.4z"/>
	<path class="st3" d="M68.8,17.3h-0.5v-2.5c-0.9,1.7-2.5,2.7-4.5,2.7c-3.2,0-5.1-2.5-5.1-5.1c0-2.7,2-5.1,5.1-5.1
		c2.3,0,4,1.4,4.5,2.8V7.6h0.5V17.3z M59.1,12.4c0,2.2,1.5,4.6,4.7,4.6c2.1,0,3.6-1.3,4.3-3c0.2-0.5,0.3-1.1,0.3-1.7
		c0-0.6-0.1-1.2-0.3-1.7c-0.7-1.7-2.3-2.8-4.3-2.8C61.2,7.8,59.1,9.7,59.1,12.4L59.1,12.4z"/>
	<path class="st3" d="M71.6,7.6h0.5v1.8c0.9-1.9,2.6-2,3.4-2.1v0.5h-0.1c-2.1,0-3.3,1.5-3.3,4.1v5.3h-0.5V7.6z"/>
	<path class="st3" d="M77.2,3.7h0.5v8.1l5.2-4.2h0.7l-5.2,4.3l5.6,5.4h-0.7l-5.6-5.4v5.4h-0.5V3.7z"/>
	<path class="st3" d="M85.7,3.7h0.5v1.7h-0.5V3.7z M85.7,7.6h0.5v9.7h-0.5V7.6z"/>
	<path class="st3" d="M89.1,7.6h0.5c0,0.7,0,1.3,0,2.1c0.7-1.7,2.3-2.4,4.1-2.3c2.9,0.1,4.3,1.8,4.3,4.7v5.2h-0.5v-5.2
		c0-2.6-1.3-4.3-3.9-4.2c-2.3,0-3.9,1.3-3.9,3.9v5.6h-0.5V7.6z"/>
	<path class="st3" d="M110.3,16.2c0,2-0.9,3.3-1.9,4.1c-1,0.8-2.3,1.1-3,1.1c-1.9,0-3.9-1.1-4.8-3h0.6c0.2,0.4,0.6,1,1.3,1.5
		c0.9,0.7,2,1,2.9,1c2.3,0,4.5-1.8,4.5-4.7v-1.6c-0.9,1.8-2.5,2.8-4.5,2.8c-3.2,0-5.2-2.5-5.2-5.1c0-2.7,2-5.1,5.2-5.1
		c2.3,0,4,1.4,4.5,2.8V7.6h0.5V16.2z M100.6,12.4c0,2.2,1.5,4.6,4.7,4.6c1.3,0,2.5-0.5,3.3-1.4c0.8-0.8,1.3-2,1.3-3.3
		c0-0.8-0.3-2-1-2.9c-0.7-0.9-1.9-1.7-3.6-1.7C102.7,7.8,100.6,9.7,100.6,12.4L100.6,12.4z"/>
</g>
</svg>
